<svg id="wave" style="transform:rotate(0deg); transition: 0.3s" viewBox="0 0 1440 490" version="1.1" xmlns="http://www.w3.org/2000/svg"><defs><linearGradient id="sw-gradient-0" x1="0" x2="0" y1="1" y2="0"><stop stop-color="rgba(243, 106, 62, 1)" offset="0%"></stop><stop stop-color="rgba(255, 179, 11, 1)" offset="100%"></stop></linearGradient></defs><path style="transform:translate(0, 0px); opacity:1" fill="url(#sw-gradient-0)" d="M0,0L40,32.7C80,65,160,131,240,147C320,163,400,131,480,122.5C560,114,640,131,720,147C800,163,880,180,960,179.7C1040,180,1120,163,1200,130.7C1280,98,1360,49,1440,89.8C1520,131,1600,261,1680,326.7C1760,392,1840,392,1920,400.2C2000,408,2080,425,2160,383.8C2240,343,2320,245,2400,196C2480,147,2560,147,2640,155.2C2720,163,2800,180,2880,155.2C2960,131,3040,65,3120,89.8C3200,114,3280,229,3360,277.7C3440,327,3520,310,3600,294C3680,278,3760,261,3840,220.5C3920,180,4000,114,4080,81.7C4160,49,4240,49,4320,49C4400,49,4480,49,4560,81.7C4640,114,4720,180,4800,204.2C4880,229,4960,212,5040,236.8C5120,261,5200,327,5280,334.8C5360,343,5440,294,5520,285.8C5600,278,5680,310,5720,326.7L5760,343L5760,490L5720,490C5680,490,5600,490,5520,490C5440,490,5360,490,5280,490C5200,490,5120,490,5040,490C4960,490,4880,490,4800,490C4720,490,4640,490,4560,490C4480,490,4400,490,4320,490C4240,490,4160,490,4080,490C4000,490,3920,490,3840,490C3760,490,3680,490,3600,490C3520,490,3440,490,3360,490C3280,490,3200,490,3120,490C3040,490,2960,490,2880,490C2800,490,2720,490,2640,490C2560,490,2480,490,2400,490C2320,490,2240,490,2160,490C2080,490,2000,490,1920,490C1840,490,1760,490,1680,490C1600,490,1520,490,1440,490C1360,490,1280,490,1200,490C1120,490,1040,490,960,490C880,490,800,490,720,490C640,490,560,490,480,490C400,490,320,490,240,490C160,490,80,490,40,490L0,490Z"></path></svg>