<?xml version="1.0" encoding="utf-8"?>
<!-- Generator: Adobe Illustrator 25.0.0, SVG Export Plug-In . SVG Version: 6.00 Build 0)  -->
<svg version="1.0" id="Layer_1" xmlns="http://www.w3.org/2000/svg" xmlns:xlink="http://www.w3.org/1999/xlink" x="0px" y="0px"
	 viewBox="0 0 520 110" style="enable-background:new 0 0 520 110;" xml:space="preserve">
<style type="text/css">
	.st0{fill:#FDB614;}
</style>
<g>
	<g>
		<g>
			<g>
				<path class="st0" d="M459.9,83.1c0.3,0.2,0.4,0.2,0.4,0.2C459.4,82.8,459.9,83.1,459.9,83.1z"/>
				<polygon class="st0" points="450.5,79 450.7,79 449.3,78.6 				"/>
				<path class="st0" d="M441.8,75.1c0.6,0.8,3.2,1.4,4.7,2.2l0.2,0.2l0.8,0C445.6,76.7,443.1,75.8,441.8,75.1z"/>
				<path class="st0" d="M437.7,71.8c0.2,0.4-1.1-0.3,1,0.6c-0.1-0.1-0.1-0.1-0.2-0.1C438.4,72.2,438.1,72.1,437.7,71.8z"/>
				<path class="st0" d="M438.5,72.3C439.4,72.7,438,71.8,438.5,72.3L438.5,72.3z"/>
				<path class="st0" d="M434.4,70.3l1.3,0.4c-0.2-0.3-1.2-0.8-0.8-0.7C433.6,69.4,433.8,69.7,434.4,70.3z"/>
				<path class="st0" d="M433.1,70.2l0.7,0.2C433.6,70.3,433.5,70.2,433.1,70.2z"/>
				<path class="st0" d="M435.1,70.9l-1.4-0.5c0.1,0.2,0.1,0.4,0.6,0.2C434.1,70.8,434.5,70.7,435.1,70.9z"/>
				<path class="st0" d="M435.8,71.3c0.6,0.5,1.4,0.9,0.2,0.6C438.3,72.9,438.1,72.4,435.8,71.3z"/>
				<path class="st0" d="M441.2,75.4l0.9,0.5l0.8,0.2C442.5,76,441.2,75.2,441.2,75.4z"/>
				<path class="st0" d="M427.2,66.2c-0.1,0.1,0.2,0.6,0.2,0.9l0.9,0.3C427.9,67,427.1,66.4,427.2,66.2z"/>
				<path class="st0" d="M427.4,67l-1.4-0.4C427.1,67.3,427.4,67.2,427.4,67z"/>
				<path class="st0" d="M432.5,70.8c0.8,0.2,1.6,0.4,2.4,0.6c-0.9-0.3-1.9-0.5-2.8-0.8L432.5,70.8z"/>
				<polygon class="st0" points="422.2,63.6 423.1,63.5 421.6,63.5 				"/>
				<path class="st0" d="M418.9,61.9c0.7-0.1-0.5-1,0.2-0.9c-0.9-0.4-1.8-0.5-2.6-0.6C417.2,60.7,418,61.1,418.9,61.9z"/>
				<path class="st0" d="M415.1,60.3c0.4,0.1,0.9,0.1,1.3,0.2C416,60.3,415.6,60.3,415.1,60.3z"/>
				<path class="st0" d="M423.8,65.5c-0.1-0.2-0.1-0.5-0.8-1l0.3,0.7C423.4,65.3,423.6,65.4,423.8,65.5z"/>
				<path class="st0" d="M423.3,65.2L423.3,65.2c-0.6-0.3-0.9-0.5-1.1-0.6C422.3,64.7,422.6,64.9,423.3,65.2z"/>
				<path class="st0" d="M423.9,65.5c0,0-0.1,0-0.1-0.1C423.8,65.5,423.8,65.6,423.9,65.5z"/>
				<path class="st0" d="M429.2,68.8c-0.9-0.1-2.6-0.6-1.2,0.5C428.7,69.2,427.9,68.6,429.2,68.8z"/>
				<path class="st0" d="M424.3,66.4l1.4,0.8c0-0.1-0.2-0.4,0.3-0.4L424.3,66.4z"/>
				<polygon class="st0" points="423.6,66.3 424.3,66.4 423.8,66.1 				"/>
				<path class="st0" d="M417.3,62c-0.7-0.1-1.4-0.4-2.1-0.7c0.8,0.5,1.6,1,2.3,1.3C417.7,62.5,418.1,62.4,417.3,62z"/>
				<path class="st0" d="M420.2,63.6c0,0-0.1,0-0.1,0C420.1,63.7,420.1,63.7,420.2,63.6z"/>
				<path class="st0" d="M407.8,57.8c0,0.1,0,0.1,0.1,0.2c0,0,0-0.1,0.1-0.1L407.8,57.8z"/>
				<path class="st0" d="M417.6,62.8c0.6,0.4,1,0.4,1.4,0.4c-0.5-0.2-1-0.4-1.5-0.6C417.4,62.7,417.4,62.8,417.6,62.8z"/>
				<path class="st0" d="M413,59.5c0.3,0.3,0.6,0.6,0.9,0.8C413.6,60,413.1,59.4,413,59.5z"/>
				<path class="st0" d="M419.9,63.3C419.9,63.3,419.9,63.4,419.9,63.3C419.8,63.2,419.8,63.2,419.9,63.3z"/>
				<path class="st0" d="M419.9,63.3c-0.3-0.1-0.6-0.1-0.9-0.1c0.4,0.1,0.7,0.2,1.1,0.3C420,63.5,419.9,63.4,419.9,63.3z"/>
				<path class="st0" d="M403.8,60.9c0.4-0.6,2.2-0.4,3.3,0.8c1.6,0.1,1.4-2.1,0.7-3.7c-0.1,0.2-0.2,0.5-1.8,0.2
					c0.3,0.6,2.8,2.2,1.4,2.2c-2-0.5-1.4-0.9-2.2-1.6c0.5,1.1-2.8,0.1-2.9,1.4l1.8,0.3C404.1,60.5,403.4,60.5,403.8,60.9z"/>
				<path class="st0" d="M410.5,59.3l0.6,0.2c-0.6-0.4-1-0.9-1.6-1.7c-1.1-0.2-1.4-0.1-1.5,0.1l2.8,1.4L410.5,59.3z"/>
				<path class="st0" d="M413.6,60.7c-0.7,0.4-2.2,0-1.6,1c1.7,0.7,1.4,0.1,2.5,0.3C411.7,60.8,415.4,62,413.6,60.7
					c0.6,0.2,1.1,0.4,1.5,0.6c-0.5-0.3-0.9-0.6-1.3-0.9c0,0,0,0,0,0.1l0,0l0,0c0.1,0.1,0.1,0.2,0,0.1c0,0,0,0-0.1,0
					C413.8,60.6,413.7,60.6,413.6,60.7c-0.7-0.5-0.1-0.2,0.2-0.2c0,0,0.1,0,0.1-0.1l0,0l-2.8-1C411.6,59.8,412.3,60.1,413.6,60.7z"
					/>
				<path class="st0" d="M426.2,69.5c-0.1-0.1-0.1-0.1,0-0.1C425.9,69.4,425.9,69.4,426.2,69.5z"/>
				<path class="st0" d="M425.2,68.8c0.2,0,0.5-0.1,1.1,0.2c0.5,0.4-0.1,0.2-0.1,0.4c0.4,0,1.5,0.3,0.4-0.5l-0.2,0
					c-1-0.6-2.2-1.9-2-1.8C424.5,67.6,424.6,68,425.2,68.8z"/>
				<path class="st0" d="M419.2,65l-2.4-0.8l1,1l0.1-0.3C419.1,65.6,419,65.1,419.2,65z"/>
				<polygon class="st0" points="407.6,57.3 408.2,56.8 406.5,57.1 				"/>
				<polygon class="st0" points="404.7,56 405,55.4 404.1,55.4 				"/>
				<path class="st0" d="M224.7,42.1l-0.7,0.4C224.4,42.4,224.6,42.3,224.7,42.1z"/>
				<path class="st0" d="M230,41.9l0.1-0.6C229.8,41.6,229.7,41.9,230,41.9z"/>
				<path class="st0" d="M328.2,30c-0.9-1.2-1.9-3-2-1.7l0.2,1.2C327.2,29.4,327.7,29.7,328.2,30z"/>
				<path class="st0" d="M272.8,33.3c0.1,0.1,0.2,0.3,0.3,0.4c0.3-0.4,0.5-0.9,0.7-1.2C273.6,32.8,273.2,33,272.8,33.3z"/>
				<path class="st0" d="M272.1,38.7l-1.4-0.8C271,38.2,271.5,38.5,272.1,38.7z"/>
				<path class="st0" d="M196.4,46.1l-0.7,1.3C197.1,47.3,196.4,46.7,196.4,46.1z"/>
				<path class="st0" d="M373.8,43c-0.8-0.7-1.4-1.1-2-1.4C372.7,42.5,373.3,43.7,373.8,43z"/>
				<path class="st0" d="M225.7,28.5c-0.4,0.3-0.6,0.5-0.6,0.8C225.6,29.1,225.8,28.8,225.7,28.5z"/>
				<path class="st0" d="M369.3,40.7c0.1,0.2,0.3,0.3,0.4,0.4c0.7,0.1,1.4,0.2,2.1,0.5C371.2,40.9,370.3,40.3,369.3,40.7z"/>
				<path class="st0" d="M95.7,69c-0.1,0-0.2,0-0.2,0C95.5,69.1,95.6,69.1,95.7,69z"/>
				<path class="st0" d="M67.2,80.2c0.2-0.2,0.6-0.5,1-0.7C68,79.6,67.7,79.9,67.2,80.2z"/>
				<path class="st0" d="M392.9,50.2C393.5,50.4,393,50.1,392.9,50.2L392.9,50.2z"/>
				<path class="st0" d="M394.8,54.5c-0.2,0-0.3,0.1-0.4,0.3C394.5,54.6,394.6,54.5,394.8,54.5z"/>
				<path class="st0" d="M360.8,44.5C360.8,44.5,360.8,44.5,360.8,44.5C360.9,44.8,360.9,44.7,360.8,44.5z"/>
				<path class="st0" d="M393.7,50.9c-0.2-0.2-0.4-0.4-0.7-0.6C393.1,50.5,393.3,50.6,393.7,50.9z"/>
				<path class="st0" d="M393.7,50.5c0.2,0.1,0.4,0.2,0.5,0.3C394.4,50.8,394.3,50.6,393.7,50.5z"/>
				<path class="st0" d="M392,49.8c0.4,0.1,0.7,0.3,1,0.5c-0.1-0.1-0.1-0.2-0.1-0.2C392.7,50.1,392.4,50,392,49.8z"/>
				<path class="st0" d="M148.3,50.6c-0.1,0-0.1,0-0.2-0.1C147.5,51.1,147.8,50.9,148.3,50.6z"/>
				<path class="st0" d="M308.9,40.3C308.9,40.3,308.9,40.3,308.9,40.3c0.1-0.1,0-0.1,0-0.1L308.9,40.3z"/>
				<path class="st0" d="M306.4,41c1.2-1.5,1.7-1.2,2.5-0.8l-0.5-3.6L306.4,41z"/>
				<path class="st0" d="M212.3,43.5l1.8,1c-1.9,2-3.4,1.5-1.6,2.9c-0.2-3.9,6.6-0.9,6.4-4.8l1.2,0.7c-0.3,0-0.4,0.2-0.7,0.2
					c2.4,1.7,1.4-3,4.2-2.7c1,0.2,1.7,0.8,1.1,1.3l2.1-1.1c0.6,0,0.5,0.7-0.1,0.7l3.3-0.5l0,0.1c0.4-0.7,1.4-1.7,1.9-2.1
					c0.9,0.5-0.4,0.5-0.1,0.9l1.8-1.1c0.8,1-0.6,2.1-1.9,2c2,3.9,1.5-1.1,5.4,1l-1.7,0.6c1.3,2.2,2.6,1.3,4.6,2.6
					c-0.5-0.7-4.2-3.4-2.2-4.5c0.6,0.3,1.3,0.4,2.4-0.5c0.1,1.4,1.1,1,2.5,0.9l0,1.9c1.4-0.6,1.2-1.6,2-2.5c1.6,0.1,2,1.6,2.4,2.8
					c2.6,0.2-1.9-2.3,1.1-2.8c2.2,0.6,3.6-0.2,6.1-1.4c1.5,0.6-0.2,1.2,0.3,1.7l1.3-1.6c0.3,0,0.2,0.5,0.2,0.7
					c1.1-0.6,0-1.9,1.8-2.5c0.4-2.1,3.7,3,5.8,0.5c0.5,0.5-0.2,1.2-0.1,1.9c2.9-1.6,2.5-1.2,4.9-3.3l2.1,1.2
					c-1.5-1.4,0.4-3.1,2.1-4.6c-0.6-0.7-1-1.3-1.3-1.6l2.8-1c0.3,0.3,0.1,1-0.4,1.8c0.2-0.2,0.4-0.3,0.5-0.5c1,0.7,0.5,1.8-0.2,2.9
					c-0.3-0.4-0.7-0.8-1-1.2c-0.7,1.2-1.3,2.5-1.2,3.6c0.2-0.2,0.5-0.4,0.9-0.5c-0.2,0.3-0.3,0.6-0.2,0.8c0.1,0.2,0.4-0.2,0.8-0.7
					l0.6,2.1l0.2-0.8l3.6,1.3c2.6-2.1,4.8-5.2,9-6c-1.1,1.5-0.3,2.5-0.4,4.4c-1.1-2-3.2,0.8-5.3,0.3c1.1,0.2,0.8,1.1,0.6,1.4
					l3.8-1.7c-0.1,1.5,0.8,1.1,1.7,1.8c-0.7-3,2.9-1.9,4.4-2.8c0.1,1-0.4,2-2.2,1.7c2,2.3,2.8-3.4,4.7-1.4c-0.5,0-0.7-0.2-0.9,0.3
					c1.1-0.8,3.7,0,3,0.8l-0.5,0c3,0.5,9.1,0.5,9.8-1.9c0,0.3-0.6,2.9-0.9,3.4c2-2.6,4-5.2,6.1-7.7c-0.7,2,0.7,7.1-1.9,8.1
					c0.7,0.3,1.5,0.8,3.1,0.2c-0.5-0.3-0.9-3.1-0.2-3.2c1.6,2.5,1.1,1.4,3.2,3.5c-0.7-0.5,0.5-3.7,1.6-3.4c-0.2,0.5-0.3,3.2-0.7,3.5
					c1.1-0.9,2.2-1.9,3.2-2.8c-0.8,0.5-0.5,2.6,0.1,3.6c-0.2-0.6,2.5,0.3,3.3,0.1l-1.1-0.9c3.1,0.9,3.8-3.9,7-3.3
					c-0.5,0.6-1.6,3.7,0,4.3c1-1.4,4.5-6.9,7.7-7.5l0.4,1l2.4-0.5c-0.9,1-2.6,2.4-4.3,3.9c-1.7,1.5-3.5,2.9-4.6,3.7
					c1.1,0.9,0.2,1.1,2,1.3c0.5,0.9-1.2,1.1-1.7,1.1c1.3,0.4,2.7,0.7,4,1.2c0.1-1.8,3.5-1.2,3.6-2.7c-1.6,0.3-3.2,0.6-4.9,1
					c0.1-1.8,3.6-4.6,6.5-3.7c0.6,0.8-1.2,3-1.3,3.6c0.5-0.5,3-0.6,3.2-0.1l-1.4,0.7c1.5,1,3.2-1.7,4.8,0.3c0.7,0.2,1.5,2.6,1.8,1.6
					c-0.6-2.1,0.6-8.1,1.7-9.4c0.2,0.2,3.2,2.8,3.7,3.9c0.7,1.7-2.6,3.1-2,4.6c0.2-0.4,0.9-0.8,1.2-1c0.6,0.5-0.7,1.3,0.9,1.5
					c0.7-1.6,3.1,0.9,1.1-1.2c1.6-0.1,1.5,0.8,3.3,1.2c-0.3-1.2,2.6-3.1,4.2-3c-0.2,0.4,0,1,0.1,1.3c3,1.1,4.5,2.3,7.3,3.2
					c0.1,0.4,1.4,1.3,0.6,1.8c0.5-0.1,1-0.5,1.9-0.2c1.3,1.8-2-0.4-1.2,1.5c0.4-0.8,2.7-0.4,4.1-0.5c0.1-1.4-2.8-1.2-4.2-1.1
					c0.6-1.8,3.4-3,6.7-2.7c2.5,0.4,0.6,1.5,1.1,1.4c4.3,2,4.8-1.5,8,1.2c1,1.6-0.7,2.1-0.7,2.9c-2-0.3-2.7-1.8-4-2.2l1.4,1.1
					c-0.7,0.1-2.1-0.1-2.7-0.6c0.4,0.7,2.3,1.4,4.4,2.2c2.1,0.8,4.5,1.8,6,2.8c0.7-0.1,1.9,0,1.6-0.6l-1.1-0.3
					c-0.7-1.2,2.4-0.3,1.2-1.2c1.6,0,3.6-0.1,5.4,1.2l0,1.2c0.1-0.3-1.1-1.2-1.7-1.1c1-0.1,2.5,2.7,4,1.7l-1.1-1.3
					c1.6,0.1,3.8-0.1,5.4,1c-0.4-1.3-0.5-0.1-1.2-1.8c0.5,1.9-4.4-2.2-3.3,0.2c-0.7-1.9-2-1.6-3.2-3.5c-0.1,0.4,0.3,0.9-1.1,0.1
					c-0.1,0.1-0.3,0.1-0.4,0.2c0,0-0.1,0-0.1-0.1c0,0,0,0.1,0.1,0.1c-0.1,0-0.1,0,0,0c0.3,0.3,0.5,0.6,0.5,0.9
					c-1.1,0.5-3.4-0.6-4.4-0.5c-0.8-0.5,0.5-0.3,0.2-0.9l-1.5,0.2c0.2-0.9-1.8-2.4,0.5-2l-1.9-0.9c-0.9-1-2.4-1.8-3.5-1.8
					c-0.8-0.6-2.6,0-1.6-0.3l-3.2-0.7l0.1-0.2c-2.9-1.3-6.6-0.8-9.5-3.8c-1.1-0.1-2.2-0.2-3.8-1.1l-0.1-1c-1.4-0.2-3.7-2.3-4.5-1.5
					c-0.4-1.4-1.9-2.1-3.7-2.6c-1.8-0.5-3.7-0.6-4.8-1.2l-0.4,1.2c-1.6-0.5-3.2-0.7-5.4-0.6l-0.1,1.2c-1.9,0.5-4.3-1.9-7.1-2.4
					c0.3-0.4,1-0.1,1.4,0.2c-1.4-1.7-3.2-1.6-5.1-1.4c-1.8,0.2-3.6,0.6-5-0.7c-0.8,0.3-1.3,0-1.8-0.3c0.1,0,0.1,0,0.2,0
					c-0.1,0-0.2,0-0.3-0.1c-0.3-0.3-0.6-0.6-0.9-0.8c0.3,0.3,0.5,0.6,0.8,0.8c-0.6-0.1-1.5-0.1-2.4,0.1l-0.2-1.4c-0.1,0-0.1,0-0.2,0
					c-0.8-0.6-0.8,0.5-0.5,1.6c-0.5,0.1-0.9,0.3-1.3,0.6c-0.4-2.3-2.4,0.4-3-2c-0.7,1-4.5,0.2-5.2,2.6c0-0.3-0.2-0.5,0.2-0.5
					c-0.9-0.4-1.9-0.8-2.8-0.2l-0.2-1.8l-2.3,2.1c-1.2-1.2-1.7-1.9-0.2-3.1c-3.3,1.8-2.6,0.5-5.4,2.4l0.2-1.1
					c-0.9-0.1-2.5,1.4-3,0.4c-1.9-2.4-10.3-1-15.6-3.2c0.9,3.5-2.5-1.6-2.7,1c-0.3-0.8-1-1.3-0.1-2c-2.8,0.7-4.1-1.4-6,0.8
					c-0.3-0.8,0.6-1.2,0.3-1.7c-0.2,0.2-0.9,0.7-1.2,0.2c-0.3-0.5,0.4-0.7,0.8-1c-2.8,0.1-3.1,2.6-3.3,5c-1.4-1.1-2.1-1-3.1,0.6
					c-0.5-0.8-1.3-1.6,0.4-1.9c-1-0.1-6-1.1-6.1,0.8c-0.3-0.5-1.4-0.1-1.6,0.1c-2.2-0.1-2.4-0.3-4.5,0l0.6,0.3
					c-0.8,2.3-1.8,0.6-3.5,0.9l0-0.2c-4-1.5-1.7,0.9-5.7-0.9l0.3,1.4c-0.2,3.1-3.5-1.7-5.8-0.4l0.9,0.8c-1.2,1.1-3.7-4-4.9-4.3
					c-0.3-0.3,0.4-0.5,0.8-0.7c-3.4-1.6-0.3,1.9-2.7,2.5c-0.5-1,0.4-2.6-1.2-2.7c-0.4-0.4-1.6,0.5-2.9,1.3c-1.3,0.8-2.8,1.4-4,0.6
					c0.5,0.7,1.1,1.5,0,2.1c-1.7,0.4-4.9-2.5-6.3,0c-0.2-0.2-0.3-0.4-0.4-0.6c-1.3,0.7-4.2,1.4-4.9,2.8c-1.7-4.7-8,3.1-8.4-1.2
					c-1.3,0.2-2.7,0.5-4,0.7l0.1-0.5c-2.6,0.1-3.4,1.2-4.2,2.3c-0.6-0.2-0.2-0.7-0.2-0.9c-3.9-0.4-4.3-0.2-7.1,2.4l-0.5-1.3
					c-0.7,0.9-5.8-1.3-9.2,0.9c0-0.2,0-0.4,0.3-0.7c-2,1.1-4.6,0.7-6.8,0.6c-2.2-0.1-4.1,0.2-4.4,2.6c-0.8,0.6-1.7,1.1-2.5,1.7
					c3.6-0.3-0.2,2.1,1.4,2.5c-1.3,0.5-3.8-0.6-2.2-1.2l0.3,0.2c0.2-2.5-4.5,0.1-4.7-1.5c-3.4,0.8-6.9,1.2-10.3,1.8
					c-3.4,0.6-6.8,1.1-10,2l1.1,1.4l-2.2,0.6c-0.7-0.2-1.1-1,0.5-1.4c-1.1-0.6-2.5,1.5-2.4,1.9c-3.3,0.3,0.7-2.2-0.2-1.9l-1.3,0.5
					l0.3,0.1c-0.9,0.9-0.8,1.6-2.7,2.1c-1.3,0.1-0.9-0.7-1.4-0.7c0-0.1-0.2-0.1-0.7,0.2c-0.9,0.2-1.9,0.5-2.8,0.8l1.4,0.8
					c-1.1,1-2.6,0.8-1,1.7c-1.2-0.7-3.9,0-6.3,0.8c-2.5,0.8-4.8,1.8-5.5,1.7c-1.4,1.4-3.1,2-5.2,2.7c0.6,0,1.3,1-0.6,1.5
					c-0.1-2.4-3.6,0.2-5.6-0.7c1.6,0.4-4.9,2.4-2.4,2.9c-1.5,0.5-0.4-0.7-1.7-0.7c-1.6,1.1-3.5,1.8-5.6,2.6
					c-2.1,0.7-4.2,1.6-6.3,2.7c0,0.2,0.9,0.2,0.1,1c-0.9,0-1.8,0-2.7,0.1c-0.8,0.5-0.3,1.5-2.1,1.6c0.3,0,0.7,0.1,0.2,0.5
					c-1.1,0.4-2.1,0.8-3.2,1.4c-1,0.5-2.1,1.1-3.1,1.6c-2,1.1-4,2.3-6.1,3.5c-2,1.3-4,2.5-6,3.7l-3,1.8l-1.5,0.9l-1.5,0.9
					c1.1-0.6,0.4-0.1-0.4,0.4c0.5-0.3,0.1,0.1,0.2,0.1c-1.1,0.7-2.2,1.3-3.3,2.1c-0.5,0.5-3.4,2.4-3.7,2.7l1-0.7
					c-0.6,0.5-0.2,0.2,0.5-0.1c0.7-0.4,1.5-0.7,1.4-0.6c0.7-0.5,1.8-1.1,3-1.7c1.2-0.6,2.6-1.2,3.8-2.1c0.6-0.2-0.4,0.4-0.1,0.3
					c0.6-0.5,1.4-0.9,2.9-1.6L74,78c2.1-1.1,3.6-1.8,5.3-2.5c0.8-0.3,1.6-0.7,2.6-1.1c1-0.4,2-0.8,3.3-1.2l-0.6-0.2
					c1.1-0.4,1.4-0.4,1.9-0.5c0.9-1.1-3,1.3-2.2,0.2c0.9,0.1,2.7-0.7,4.5-1.5c1.8-0.8,3.5-1.5,4.3-1.2c1.6-0.6-0.7-0.4,0.9-1
					l0.6,0.1l0.2-0.6c1.1-0.4,1.8-0.2,2,0.1c-0.3,0.1-0.7,0.4-1,0.5c1.6-0.1,3.9-1.6,4.4-1.7l-1.7,0.4c2.2-1,4.6-2,7.1-2.9
					c2.5-0.9,4.9-1.8,6.9-3l-0.5-0.2c3.1-1.8,2.8-0.6,6.4-2.1l-0.1,0.1c0.6-0.6,1.5-1.1,2.6-1.4c-0.8,0.7,2.1,0.3,1,1.2
					c3.4-1.9,1.6-1.1,3.5-3.4l0.8,0.5c0.6-0.9,0.6-1.2,2.4-1.9c-1.3,1,1.5,0.7,0.1,1.9c2.2,0.2,3.5-0.6,4.6-1.2
					c1.1-0.6,2-1.1,3.2-0.2c1.2-2.5-3.7-0.2-2.8-0.9c-1-0.4,1-1.9,2.3-2.1c1.3-0.3,2.9,1.9,6,1.2c-0.3,0.1-0.3,0.2-0.6,0.3
					c1.3,0.3,2.1-1.3,3.8-0.7c0.5-1.5,1.9-0.4,1.7-2.1l-2.8,1.1c1.5-0.8,2.6-3.2,5.5-2.9c-0.1,0.4-0.8,1.1-1.3,1.5
					c0.9,0.3,1.4-0.7,2.4-0.4c0.2,1.8-3.4,1.2-4.9,3c1,0.5,3-2,2.6,0c0.7-2.7,3.2-0.4,4.9-2.7l0.1,1.1c0.3-0.2,0.9-0.9,1.5-1
					l-0.8,1.6c1.5-1.5,3.6,0.4,5.1-0.6c-3.5,0.7-1.1-1.2-2.8-1.7c4-2.4,3.1,2.3,7.9,0.9c-0.6,0.3-2.6-0.2-1.7-0.9c1,0,2.3,0.3,3,0.8
					c3.2-0.8-0.7-1.1,0.5-2c1.4,1.2,1.5-0.8,2.8-1.6l0.2,1.2c3.8,0.1,0.5-2.7,4-2.3l-1.1,1.9l1.6-0.7l-0.1,1.4
					c1.7-1.4,2.3-1.2,4.2-1.1c-0.6-0.8-0.2-2.3,1.5-2.6c1.2,0.6-0.4,1.3,1.9,0.7c-0.4,0.9-0.8,1.9-2,0.9c0,0.4-0.4,0.9-0.4,1.3
					c1.3,0.7,3-0.2,3.9-0.4c-0.3,0-0.7,0-1-0.2l3.1-2.3c0.6,0.4,0.2,0.8-0.1,1.3c0.7-0.2,1-0.9,2-1.2c-0.1,1.1,0.1,2.1-1.2,2.8
					c1-0.5,2-1.1,3-1.6c0.3,0.4,1.8,1.1,1.5,1.5c1.9,0.4,4-2.6,6.5-2c0.1-0.2,0.3-0.5,0.8-0.7c1.1,0,2.2,0.2,3.3,0.3
					c1.1,0.1,2.3-0.1,3.5-1l1.7,1.8c2-0.7-2.3-2.3,1-3.4c2.4-0.9,1.1,1.6,2,2.1c1.1-1.1,3-3.4,5.4-2
					C213.5,43.6,212.9,43.3,212.3,43.5z M237.7,40.7c-0.5,0.3-1.4,1.3-1.8,0.5C236.3,39.6,236.8,40.3,237.7,40.7z M276.6,36.1
					c-0.4,0.5-0.9,0.2-1.6-0.3C275.5,35.7,276.1,35.8,276.6,36.1z M385.6,47.8C385.6,47.8,385.6,47.8,385.6,47.8
					C384.7,47.1,385,47.4,385.6,47.8z M387.6,49.2c0.3,0,0.3-0.2,0.3-0.3c-0.2,0.2-0.7,0-1.3-0.3C386.7,48.8,386.9,49.1,387.6,49.2z
					 M139.3,45.7l0.5,0.1C138.9,46.4,139.1,46,139.3,45.7z"/>
				<path class="st0" d="M272.2,38.1c-0.1-0.2-0.2-0.5-0.2-0.8C271.8,37.6,271.8,37.8,272.2,38.1z"/>
				<path class="st0" d="M196.6,45.9C196.5,45.9,196.5,45.9,196.6,45.9c-0.1,0.1-0.1,0.2-0.1,0.2L196.6,45.9z"/>
				<path class="st0" d="M350.7,46.6c-0.4-0.3-0.6-0.5-0.7-0.8C349.9,46.1,350,46.4,350.7,46.6z"/>
				<path class="st0" d="M399.6,52.8l-1.4-0.4c0.7,0.3,0.8,0.5,1.1,0.8C399.3,53,399.1,52.6,399.6,52.8z"/>
				<path class="st0" d="M409.5,62.7c0.2,0,0.4,0.2,0.7,0.2l0.1-0.3C409.4,62.2,408.6,62.2,409.5,62.7z"/>
				<path class="st0" d="M399.7,56c-0.2,0.7,0.8,0.9,1.8,1.2c-0.1,0-0.1,0-0.2-0.1C402,56.3,400.9,56.1,399.7,56z"/>
				<path class="st0" d="M401.8,57.2c0.3,0.1,0.6,0.2,0.9,0.4C402.9,57.3,402.3,57.4,401.8,57.2z"/>
				<path class="st0" d="M390.6,49.8c0.4,0.4,0.7-0.8,0.8-0.4C392.2,48.7,387.9,49.2,390.6,49.8z"/>
				<polygon class="st0" points="399.6,58.5 399.6,57.5 398.8,58 				"/>
				<path class="st0" d="M392.2,54.8l1.4,0.9c0-0.2,0.3-0.2,0.5-0.1C393.3,55.1,392.3,54.5,392.2,54.8z"/>
				<path class="st0" d="M394.2,55.5c0.5,0.2,1,0.4,1.3,0.4C395.3,55.8,394.7,55.6,394.2,55.5z"/>
				<polygon class="st0" points="397.4,57.9 397,57.5 396,57 				"/>
				<path class="st0" d="M375.6,48.1l-1.8-0.3c-0.3,0.3,0.1,0.7,0.8,0.8C375,48.5,375.7,48.6,375.6,48.1z"/>
				<path class="st0" d="M379.7,52.8c-0.4-0.4-0.3-0.6-0.5-1l-0.5,1.2L379.7,52.8z"/>
				<path class="st0" d="M374.6,51.3c-0.3,0.3-2.9,0.2-0.6,0.8C374.3,51.9,376.1,52.1,374.6,51.3z"/>
				<polygon class="st0" points="349,41.8 349.5,41.9 350.1,39.4 				"/>
				<path class="st0" d="M324.4,43.9c2,0.9,0.8-1.6,2.5-0.6c0.6-0.6-1.4-0.9-0.8-1.4C324.7,42.4,324.1,42,324.4,43.9z"/>
				<path class="st0" d="M326.1,41.9c0.2-0.1,0.5-0.2,0.7-0.3C326.4,41.7,326.2,41.8,326.1,41.9z"/>
				<polygon class="st0" points="63,83.2 61.9,84 62.7,83.5 				"/>
				<path class="st0" d="M60.9,84.8L60.7,85c-0.2,0.2-0.4,0.3-0.7,0.5C60.2,85.3,60.7,85,60.9,84.8z"/>
				<path class="st0" d="M241.7,44.4l0.1-0.5c-0.2-0.5-0.6-0.5-1.2-0.6L241.7,44.4z"/>
				<polygon class="st0" points="223.2,44.1 223.5,44.1 222.7,42.5 				"/>
				<path class="st0" d="M207.9,47.6c0.6,0,1.3-0.4,2-0.4C208.6,47.6,207.5,45.5,207.9,47.6z"/>
			</g>
		</g>
	</g>
</g>
</svg>
