<?xml version="1.0" encoding="utf-8"?>
<!-- Generator: Adobe Illustrator 25.0.0, SVG Export Plug-In . SVG Version: 6.00 Build 0)  -->
<svg version="1.1" id="Layer_1" xmlns="http://www.w3.org/2000/svg" xmlns:xlink="http://www.w3.org/1999/xlink" x="0px" y="0px"
	 viewBox="0 0 500 500" style="enable-background:new 0 0 500 500;" xml:space="preserve">
<style type="text/css">
	.st0{fill:#FFB703;}
	.st1{opacity:0.62;}
	.st2{fill:#219EBC;}
</style>
<g>
	<g>
		<g>
			<g>
				<path class="st0" d="M-1,34v101h78.7v125c0,0,2.6,246,254,222.3c0,0-141.7-43-157-222.3V134.6h90.7V34H-1z"/>
			</g>
		</g>
	</g>
	<g class="st1">
		<g>
			<g>
				<path class="st0" d="M-1,34v101h78.7v125c0,0,2.6,246,254,222.3c0,0-141.7-43-157-222.3V134.6h90.7V34H-1z"/>
			</g>
		</g>
	</g>
</g>
<g>
	<g>
		<g>
			<g>
				<path class="st2" d="M387.1,466.5c0,0-100.7-9.5-152.9-97.8c0,0,78.9,48,149.7-21.6h116C500.2,347.1,477.7,422,387.1,466.5z"/>
			</g>
		</g>
	</g>
	<g class="st1">
		<g>
			<g>
				<path class="st2" d="M387.1,466.5c0,0-100.7-9.5-152.9-97.8c0,0,78.9,48,149.7-21.6h116C500.2,347.1,477.7,422,387.1,466.5z"/>
			</g>
		</g>
	</g>
</g>
<g>
	<g>
		<g>
			<g>
				<path class="st2" d="M395.2,213.2H500c0,0-31.4-173.3-212.4-179.2v99.8C287.8,133.8,368.3,139.7,395.2,213.2z"/>
			</g>
		</g>
	</g>
	<g class="st1">
		<g>
			<g>
				<path class="st2" d="M395.2,213.2H500c0,0-31.4-173.3-212.4-179.2v99.8C287.8,133.8,368.3,139.7,395.2,213.2z"/>
			</g>
		</g>
	</g>
</g>
</svg>
