<?xml version="1.0" encoding="utf-8"?>
<!-- Generator: Adobe Illustrator 25.0.0, SVG Export Plug-In . SVG Version: 6.00 Build 0)  -->
<svg version="1.1" xmlns="http://www.w3.org/2000/svg" xmlns:xlink="http://www.w3.org/1999/xlink" x="0px" y="0px"
	 viewBox="0 0 1440 709.2" style="enable-background:new 0 0 1440 709.2;" xml:space="preserve">
	 <defs>
        <linearGradient id="myGradient" gradientTransform="rotate(-45)">
          <stop offset="0%" stopColor="#FB8500" />
          <stop offset="100%" stopColor="#FFB703" />
        </linearGradient>
      </defs>
<style type="text/css">
	.st0{fill:#FB8500;}
</style>
<g id="wave">
	<path class="st0" d="M0,268.2l80-8.2c204-15,340.4,26.1,428.4,67.8c22.7,10.8,73,58.2,154.3,75.2c57.4,12,107.6,6.5,140.8,0
		c7.4,9.3,66.1,80.6,156.5,77.4c15.3-0.5,62.4-2.9,103.9-38.9c31.5-27.4,43.7-60.2,48.2-75.2c72.4-20.9,188.4-45.6,327.9-32.9
		c177.5,16.2,249.8,49.5,480,155.2c160,73.5,320,122.5,480,89.8c160-32.3,320-147.3,480-171.5c160-24.8,320,41.2,480,49
		c160,8.2,320-40.8,480-40.8s320,49,480,98s320,98,480,65.3c160-32.3,320-147.3,480-220.5c160-73.8,320-105.8,480-106.1
		c160,0.3,320,32.3,480,57.1c160,24.2,320,41.2,480,81.7s320,106.5,480,114.3c160,8.2,320-40.8,480-32.6c160,7.8,320,73.8,480,98
		c160,24.8,320,7.8,480-32.7s320-106.5,480-122.5s320,16,480,24.5s320-8.5,480-49s320-106.5,480-122.5s320,16,480,40.8
		c160,24.2,320,41.2,400,49l80,8.2v343h-80c-80,0-240,0-400,0s-320,0-480,0s-320,0-480,0s-320,0-480,0s-320,0-480,0s-320,0-480,0
		s-320,0-480,0s-320,0-480,0s-320,0-480,0s-320,0-480,0s-320,0-480,0s-320,0-480,0s-320,0-480,0s-320,0-480,0s-320,0-480,0
		s-320,0-480,0s-320,0-480,0s-320,0-480,0s-320,0-480,0s-320,0-480,0s-320,0-480,0s-320,0-480,0s-320,0-480,0s-320,0-400,0H0V268.2z
		"/>
</g>
<g id="Layer_2">
	<path class="st0" d="M897.1,203.9c-3.6,14.3-11.3,34.6-30.1,53.6c-4.7,4.7-7.5,6.8-11.3,10.1c-7.3,6.4-44.7,38.9-47.1,79.3
		c-2.3,38.6,28.4,67.3,37.6,75.4c-7.4-9.2-19.6-27.3-19.8-51.3c-0.1-24.1,12-42,18.8-52.1c10-14.8,24-28.5,38.6-42.7
		c12.1-11.9,20.3-18.7,23.5-31.1c3.2-12.2-0.3-23-0.9-24.9C904,212.8,900,207.3,897.1,203.9z"/>
	<path class="st0" d="M939.4,191.4c2.2,6.4,6,15.9,13.2,26.4c9,13.2,15,16,32.9,34.2c17.8,18,26.8,27.4,33.9,42
		c3.2,6.6,8.4,17.8,8.5,32.6c0,20.8-10.2,38.6-13.2,38.1c-3-0.5,6.2-19.5-1.9-43.5c-4.3-12.9-13.3-23-31.1-42.7
		c-12.8-14.2-24.4-25.5-32.9-33.4c-14.6,19.6-28.1,34.4-37.6,44.3c-10.8,11.2-14.4,13.7-22.6,23.3c-15.3,17.9-24.2,28.5-27.3,43.5
		c-5.6,27.6,13.1,49.8,15.1,52.1c17.9,20.5,43.7,26.2,55.5,28.8c35.6,7.8,83.3,3,115.7-24.1c28.2-23.5,31.7-53,32.9-62.9
		c2.6-21.9-3.2-39.7-7.5-49.7c6.8,11.4,16.8,32.2,16.9,59.1c0,11.9,0.1,30.4-12.2,49.7c-19.1,30-54.7,41.2-66.8,45.1
		c-5.9,1.9-64.1,19.4-118.6-6.2c-9.5-4.5-28.1-13.5-41.4-31.9c-22-30.5-12.2-62.7-9.4-70.7c5.4-15.6,15.4-26.4,24.5-36.5
		c14-15.6,22.2-18.8,35.8-31.9c10-9.6,22.8-24.6,32.9-46.6c-1.7-2.9-3.9-7.4-4.7-13.2c-0.4-3-1-7.6,0.9-13.2
		C933,197.9,936.9,193.8,939.4,191.4z"/>
	<path class="st0" d="M962,168.1c3.2,8.5,8.9,20.8,18.8,34.2c7.5,10.1,13.2,15.1,26.3,28c24.7,24.3,37.1,36.4,44.2,46.6
		c8.7,12.4,20,28.5,21.6,51.3c0.3,4.7,1.2,22.2-8.5,42.7c-7.3,15.4-17.5,26.3-24.5,32.6c21.9-36.3,16.5-63,13.2-73.8
		c-4.9-16.1-14.6-27.8-28.2-44.3c-25.7-31.1-50.8-53.6-50.8-53.6c-1.8-1.7-10-8.9-16.9-20.2c-4.2-6.8-7.4-12.2-7.5-19.4
		C949.7,180.7,957.8,172,962,168.1z"/>
	<path class="st0" d="M945.8,432.1c-3.2-1.1-7.8-3-12.5-6.2c-9.7-6.6-13.6-14.5-15.1-17.6c-1.4-2.9-3.8-8.1-3.8-15.2
		c0-9,4-15.8,6.3-19c-1.5,4.3-3.6,12.6-0.8,22.4c1,3.5,2.8,9.6,8.8,15.5c8.6,8.6,20,11.1,23.8,11.7c2.7,0.5,24.4,4,38.9-8.6
		c1.4-1.2,11.3-10.1,10-21.8c-0.3-3.1-1.4-6.3-15.1-22.4c-13.2-15.6-16.2-17.3-17.1-22.4c-1.1-5.5,0.3-14,13.4-25.9
		c-3.2,1.2-14.9,6.1-18.4,16.2c-1.9,5.6-0.7,10.7,0,13.5c1.3,5.3,4.1,9.9,8.8,17.6c2.7,4.4,3.6,5.4,3.3,5.5
		c-0.8,0.5-16.7-9.5-18.8-23.5c-1.1-7,1.4-14.6,4.6-24.9c1.1-3.6,2.3-6.5,2.3-6.5c1.3-3.5,1.9-4.4,2.3-5.9c0.8-2.3,1.3-5.9,0-10.7
		c-2.3,5.8-6.6,14.6-14.6,23.8c-8.2,9.6-12.1,10-22.2,20.7c-7,7.5-15.2,16.4-19.7,29.7c-1.5,4.7-4.4,13.6-2.1,24.9
		c1.1,5.3,2.6,12.1,9.2,18.3c5.6,5.3,12.2,7.7,15.1,8.6C937.9,431.7,942.7,432.1,945.8,432.1z"/>
	<path class="st0" d="M1005.2,414.1c1.4,0.4,9.7-9.1,9.6-20.7c-0.1-9.1-5.2-16.5-11.3-25.6c-7.1-10.3-13.1-15.1-11.7-22.4
		c0.6-3.4,2.6-6,4.2-7.6c-3.7,2.9-9,8-9.2,14.5c-0.1,4.3,2,7.1,5.9,12.8c9.1,13.5,13.6,20.2,15.1,25.9
		C1011,403.8,1003.8,413.7,1005.2,414.1z"/>
	<path class="st0" d="M882.5,392.4c3-0.7-6.7-18.2,2.3-34.9c2.8-5.2,7.3-9.2,16.4-17.3c7.3-6.5,9.8-7.5,22.7-18
		c14-11.4,16.1-14.2,17.3-17.6c2.5-7.2-0.2-14-2.3-18c-12.4,16.1-23.6,26.4-31.8,33c-2.5,2-7.9,6.2-14.5,12.8
		c-8.2,8.1-12.6,12.4-15.9,19.1c-1.7,3.5-7.2,14.9-2.7,28.1C876.1,386.2,880.6,392.8,882.5,392.4z"/>
	<path class="st0" d="M1069,383.2"/>
</g>
</svg>
